<svg width="15" height="15" viewBox="0 0 15 15" fill="none" xmlns="http://www.w3.org/2000/svg">
<path d="M7.5 1.69922C8.84205 1.69912 10.1426 2.16437 11.1801 3.01568C12.2176 3.86699 12.9278 5.0517 13.1897 6.36794C13.4516 7.68419 13.249 9.05052 12.6164 10.2341C11.9839 11.4178 10.9605 12.3454 9.72061 12.8591C8.48075 13.3727 7.10115 13.4406 5.81687 13.0511C4.53259 12.6616 3.42309 11.8388 2.67743 10.723C1.93176 9.60718 1.59607 8.26733 1.72754 6.93173C1.85901 5.59614 2.44952 4.34746 3.39844 3.39844C3.93582 2.85812 4.57502 2.42973 5.27904 2.13806C5.98307 1.84639 6.73795 1.69723 7.5 1.69922ZM7.5 0C3.35771 0 0 3.35801 0 7.5C0 11.642 3.35771 15 7.5 15C11.6423 15 15 11.642 15 7.5C15 3.35801 11.642 0 7.5 0Z" fill="white"/>
<path d="M9.45939 8.75984C9.19045 9.15177 8.80315 9.44735 8.35414 9.60333C7.90514 9.75932 7.418 9.76752 6.964 9.62673C6.51 9.48595 6.11297 9.20357 5.831 8.82091C5.54903 8.43825 5.39691 7.9754 5.39691 7.50007C5.39691 7.02475 5.54903 6.56189 5.831 6.17924C6.11297 5.79658 6.51 5.5142 6.964 5.37341C7.418 5.23263 7.90514 5.24083 8.35414 5.39681C8.80315 5.5528 9.19045 5.84838 9.45939 6.24031L10.8604 5.27908C10.7231 5.07907 10.5676 4.89215 10.396 4.72068C8.86349 3.18816 6.37032 3.18816 4.83781 4.72068C3.30529 6.2532 3.30529 8.74636 4.83781 10.2789C5.24629 10.6869 5.73957 10.9999 6.28265 11.1958C6.82572 11.3917 7.40526 11.4656 7.98012 11.4124C8.55499 11.3591 9.11107 11.1799 9.6089 10.8876C10.1067 10.5952 10.5341 10.1969 10.8607 9.72078L9.45939 8.75984Z" fill="white"/>
</svg>
