<svg width="12" height="16" viewBox="0 0 12 16" fill="none" xmlns="http://www.w3.org/2000/svg">
<path d="M10.3752 0.5H1.672C0.963188 0.5 0.34082 1.08311 0.34082 1.77331V14.6479C0.34082 14.879 0.405123 15.0715 0.508756 15.2203C0.568963 15.307 0.649345 15.3778 0.742978 15.4265C0.83661 15.4752 0.940685 15.5004 1.04624 15.5C1.24855 15.5 1.46395 15.4099 1.66287 15.24L5.55667 11.934C5.67693 11.8313 5.84967 11.7724 6.02928 11.7724C6.20882 11.7724 6.38121 11.8313 6.50182 11.9343L10.3826 15.2395C10.5822 15.4099 10.7828 15.5001 10.9847 15.5001C11.3263 15.5001 11.6592 15.2366 11.6592 14.648V1.77331C11.6592 1.08311 11.084 0.5 10.3752 0.5Z" fill="white"/>
</svg>
