<svg width="16" height="15" viewBox="0 0 16 15" fill="none" xmlns="http://www.w3.org/2000/svg">
<path d="M12.8529 15H2.26471C1.29412 15 0.5 14.2059 0.5 13.2353V2.64706C0.5 1.67647 1.29412 0.882353 2.26471 0.882353H5.79412C6.32353 0.882353 6.67647 1.23529 6.67647 1.76471C6.67647 2.29412 6.32353 2.64706 5.79412 2.64706H2.26471V13.2353H12.8529V9.70588C12.8529 9.17647 13.2059 8.82353 13.7353 8.82353C14.2647 8.82353 14.6176 9.17647 14.6176 9.70588V13.2353C14.6176 14.2059 13.8235 15 12.8529 15ZM14.6176 6.17647C14.0882 6.17647 13.7353 5.82353 13.7353 5.29412V1.76471H10.2059C9.67647 1.76471 9.32353 1.41176 9.32353 0.882353C9.32353 0.352941 9.67647 0 10.2059 0H14.6176C15.1471 0 15.5 0.352941 15.5 0.882353V5.29412C15.5 5.82353 15.1471 6.17647 14.6176 6.17647Z" fill="black"/>
<path d="M8.44125 7.94118C8.17655 7.94118 8.00008 7.85294 7.8236 7.67647C7.47066 7.32353 7.47066 6.79412 7.8236 6.44118L14.0001 0.264706C14.353 -0.0882353 14.8824 -0.0882353 15.2354 0.264706C15.5883 0.617647 15.5883 1.14706 15.2354 1.5L9.0589 7.67647C8.88243 7.85294 8.70596 7.94118 8.44125 7.94118Z" fill="black"/>
</svg>
