<?xml version="1.0" encoding="UTF-8"?>
<svg id="Layer_2" data-name="Layer 2" xmlns="http://www.w3.org/2000/svg" viewBox="0 0 533.29 100">
  <defs>
    <style>
      .cls-1 {
        fill: #fff;
      }
    </style>
  </defs>
  <g id="Layer_1-2" data-name="Layer 1">
    <polygon class="cls-1" points="158.95 0 156.36 6.33 145.32 33.33 138.52 49.97 131.7 66.66 120.67 93.62 118.06 99.98 87.56 99.99 82.36 100 91.32 78.09 51.48 61.41 49.34 66.66 38.31 93.62 35.7 99.98 5.2 99.99 0 100 13.63 66.67 20.46 49.97 27.26 33.34 38.31 6.33 40.89 0 71.42 0 76.59 0 74 6.33 64.08 30.58 103.94 47.25 109.62 33.34 120.67 6.33 123.25 0 153.78 0 158.95 0"/>
    <g>
      <path class="cls-1" d="m179.04,23.5h17.18v60.73h-17.18V23.5Z"/>
      <path class="cls-1" d="m208.45,23.5h17.18v47.11h28.98v13.62h-46.16V23.5Z"/>
      <path class="cls-1" d="m302.76,72.44h-25.68l-4.77,11.8h-17.52l26.81-60.73h16.92l26.9,60.73h-17.87l-4.77-11.8Zm-5.03-12.67l-7.81-19.43-7.81,19.43h15.62Z"/>
      <path class="cls-1" d="m356.82,68.1h-9.37v16.14h-17.18V23.5h27.76c16.57,0,26.98,8.59,26.98,22.47,0,8.94-4.34,15.53-11.89,19.17l13.1,19.09h-18.39l-11.02-16.14Zm.17-31.06h-9.54v17.79h9.54c7.11,0,10.67-3.3,10.67-8.85s-3.56-8.94-10.67-8.94Z"/>
      <path class="cls-1" d="m394.47,23.5h17.18v60.73h-17.18V23.5Z"/>
      <path class="cls-1" d="m436.81,37.12h-18.65v-13.62h54.4v13.62h-18.57v47.11h-17.18v-47.11Z"/>
      <path class="cls-1" d="m510.04,62.46v21.78h-17.18v-22.04l-23.16-38.7h18.13l14.4,24.12,14.4-24.12h16.66l-23.25,38.96Z"/>
    </g>
  </g>
</svg>