<svg width="16" height="16" viewBox="0 0 16 16" fill="none" xmlns="http://www.w3.org/2000/svg">
<path d="M13.9167 0.500122H8.72126C8.37757 0.500122 7.89721 0.699232 7.65437 0.941884L0.531401 8.06482C0.0450344 8.55064 0.0450344 9.34715 0.531401 9.83238L5.83503 15.1358C6.3203 15.6216 7.11604 15.6216 7.60204 15.1353L14.725 8.01344C14.9676 7.77082 15.1668 7.2897 15.1668 6.94674V1.75019C15.1668 1.06281 14.6041 0.500122 13.9167 0.500122ZM11.4165 5.5002C10.7262 5.5002 10.1665 4.93993 10.1665 4.25013C10.1665 3.5592 10.7262 3.00007 11.4165 3.00007C12.1069 3.00007 12.6668 3.5592 12.6668 4.25013C12.6668 4.93993 12.1069 5.5002 11.4165 5.5002Z" fill="white"/>
</svg>
