<?xml version="1.0" encoding="UTF-8"?>
<svg id="Layer_2" data-name="Layer 2" xmlns="http://www.w3.org/2000/svg" viewBox="0 0 242.25 150.91">
  <defs>
    <style>
      .cls-1 {
        fill: #fff;
      }
    </style>
  </defs>
  <g id="Layer_1-2" data-name="Layer 1">
    <polygon class="cls-1" points="242.25 0 238.3 9.55 221.47 50.3 211.1 75.41 200.71 100.59 183.9 141.28 179.93 150.88 133.45 150.9 125.52 150.91 139.18 117.84 78.45 92.68 75.19 100.59 58.39 141.28 54.41 150.88 7.93 150.9 0 150.91 20.77 100.61 31.18 75.41 41.55 50.32 58.39 9.56 62.32 .01 108.85 0 116.73 0 112.78 9.55 97.66 46.15 158.4 71.3 167.07 50.32 183.9 9.56 187.84 .01 234.37 0 242.25 0"/>
  </g>
</svg>